<svg id="Layer_1" data-name="Layer 1" xmlns="http://www.w3.org/2000/svg" viewBox="0 0 348.81 319.47"><defs><style>.cls-1{fill:#fff;}</style></defs><path class="cls-1" d="M719.86,235.64A98.14,98.14,0,0,0,693,204.33a125.44,125.44,0,0,0-38.89-19.77,154.68,154.68,0,0,0-46.47-6.92A119.49,119.49,0,0,0,560,187.19a122.56,122.56,0,0,0-65.1,65.1,123.5,123.5,0,0,0,0,95.24,121.26,121.26,0,0,0,26.2,38.73A120,120,0,0,0,560,412a122.25,122.25,0,0,0,45.14,9.17,24.84,24.84,0,0,1-1.82-30.1,109.39,109.39,0,0,1-24-5.44,87.3,87.3,0,0,1-30.65-18.12,81.4,81.4,0,0,1-19.95-28.83q-7.08-17-7.08-38.4A103.32,103.32,0,0,1,528.05,263a85.72,85.72,0,0,1,18.29-29.18A81.16,81.16,0,0,1,575,214.72Q591.83,208,612.58,208a117.18,117.18,0,0,1,34.78,4.94A82.4,82.4,0,0,1,675,227.24a64.41,64.41,0,0,1,18.13,23.07q6.42,13.69,6.42,31.47,0,13.85-3,23.73a53.16,53.16,0,0,1-7.41,16,33.28,33.28,0,0,1-9.38,9.06,18.34,18.34,0,0,1-9.24,3c-3.75,0-5.61-2.41-5.61-7.25a42.13,42.13,0,0,1,.83-6.92c.53-3.08,1-5.82,1.49-8.25l13.17-69.53H650.16l-2.65,12.2q-8.24-10.56-18.61-15.33a54.1,54.1,0,0,0-22.9-4.79,60.13,60.13,0,0,0-27.52,6.26,65.82,65.82,0,0,0-21.11,16.82,78,78,0,0,0-13.49,24.05,82.91,82.91,0,0,0-4.79,28,62.45,62.45,0,0,0,4.13,23.23A55.85,55.85,0,0,0,554.42,350a49.43,49.43,0,0,0,16.47,11.71,48.46,48.46,0,0,0,19.62,4.12,50,50,0,0,0,20.25-4,39.49,39.49,0,0,0,14.67-10.55h1.33A15.14,15.14,0,0,0,633,362a21.32,21.32,0,0,0,12.85,3.8q13.18,0,28-6.11a90.84,90.84,0,0,0,27.19-17.46,94.59,94.59,0,0,0,20.59-28q8.25-16.62,8.25-37.39Q729.91,254.11,719.86,235.64Zm-85.69,73a33.11,33.11,0,0,1-6.92,10.72,34.62,34.62,0,0,1-10.55,7.41,32.31,32.31,0,0,1-13.67,2.8q-10.89,0-17.3-7.74a27.68,27.68,0,0,1-6.43-18.29,31.86,31.86,0,0,1,2.47-12,38.7,38.7,0,0,1,6.58-10.87,32.82,32.82,0,0,1,9.89-7.74,26.59,26.59,0,0,1,12.36-3c7.91,0,14.21,2.43,19,7.26s7.08,11.09,7.08,18.79A33.57,33.57,0,0,1,634.17,308.64Z" transform="translate(-393 -103.2)"/><path class="cls-1" d="M641.08,410.22a17.77,17.77,0,1,1-11.64-22.29A17.79,17.79,0,0,1,641.08,410.22Z" transform="translate(-393 -103.2)"/><path class="cls-1" d="M676.24,403.81a13.9,13.9,0,1,1-9.1-17.43A13.93,13.93,0,0,1,676.24,403.81Z" transform="translate(-393 -103.2)"/><path class="cls-1" d="M706,387.23a10.43,10.43,0,1,1-6.81-13.08A10.43,10.43,0,0,1,706,387.23Z" transform="translate(-393 -103.2)"/><path class="cls-1" d="M726.29,365.85a7.82,7.82,0,1,1-5.13-9.81A7.82,7.82,0,0,1,726.29,365.85Z" transform="translate(-393 -103.2)"/><path class="cls-1" d="M705.33,175.36c.67,5.14,5.11,8.65,9.95,7.83a9.53,9.53,0,0,0,7.53-10.76,8.73,8.73,0,0,0-10-7.83C708,165.4,704.66,170.23,705.33,175.36Z" transform="translate(-393 -103.2)"/><path class="cls-1" d="M727.16,200.1a7.3,7.3,0,0,0,8.3,6.54,8,8,0,0,0,6.28-9,7.27,7.27,0,0,0-8.3-6.53A8,8,0,0,0,727.16,200.1Z" transform="translate(-393 -103.2)"/><path class="cls-1" d="M678,154.14c.83,6.42,6.39,10.8,12.44,9.8s10.25-7,9.42-13.46-6.41-10.8-12.44-9.79S677.18,147.72,678,154.14Z" transform="translate(-393 -103.2)"/><path class="cls-1" d="M640.3,135.92c1.05,8.13,8.09,13.68,15.74,12.41s13-8.91,12-17-8.13-13.69-15.77-12.41S639.23,127.77,640.3,135.92Z" transform="translate(-393 -103.2)"/><path class="cls-1" d="M592.62,124.08c1.21,9.42,9.38,15.86,18.21,14.36s15-10.3,13.82-19.72-9.37-15.86-18.22-14.37S591.39,114.66,592.62,124.08Z" transform="translate(-393 -103.2)"/><path class="cls-1" d="M532.38,130.39c1.68,12.85,12.81,21.63,24.9,19.61s20.48-14.06,18.83-26.9-12.81-21.62-24.89-19.61S530.72,117.56,532.38,130.39Z" transform="translate(-393 -103.2)"/><path class="cls-1" d="M453.82,166.15c2.65,15.89,16.9,26.33,31.84,23.28S510.53,171,507.9,155.1s-16.9-26.32-31.84-23.29S451.18,150.25,453.82,166.15Z" transform="translate(-393 -103.2)"/><path class="cls-1" d="M393.45,229.13c2.82,16.93,18,28,33.87,24.78s26.47-19.59,23.66-36.52-18-28-33.87-24.77S390.65,212.22,393.45,229.13Z" transform="translate(-393 -103.2)"/></svg>